<svg id="visual" viewBox="0 0 900 600" width="900" height="600" xmlns="http://www.w3.org/2000/svg" xmlns:xlink="http://www.w3.org/1999/xlink" version="1.1"><rect x="0" y="0" width="900" height="600" fill="#ffffff"></rect><path d="M402 0L407.7 7.7C413.3 15.3 424.7 30.7 419.3 46C414 61.3 392 76.7 386.5 92C381 107.3 392 122.7 397.7 138.2C403.3 153.7 403.7 169.3 407.5 184.8C411.3 200.3 418.7 215.7 416 231C413.3 246.3 400.7 261.7 396.7 277C392.7 292.3 397.3 307.7 404.5 323C411.7 338.3 421.3 353.7 421.2 369C421 384.3 411 399.7 412.5 415.2C414 430.7 427 446.3 421.8 461.8C416.7 477.3 393.3 492.7 389.2 508C385 523.3 400 538.7 405.7 554C411.3 569.3 407.7 584.7 405.8 592.3L404 600L0 600L0 592.3C0 584.7 0 569.3 0 554C0 538.7 0 523.3 0 508C0 492.7 0 477.3 0 461.8C0 446.3 0 430.7 0 415.2C0 399.7 0 384.3 0 369C0 353.7 0 338.3 0 323C0 307.7 0 292.3 0 277C0 261.7 0 246.3 0 231C0 215.7 0 200.3 0 184.8C0 169.3 0 153.7 0 138.2C0 122.7 0 107.3 0 92C0 76.7 0 61.3 0 46C0 30.7 0 15.3 0 7.7L0 0Z" fill="#0066FF" stroke-linecap="round" stroke-linejoin="miter"></path></svg>