<svg id="visual" viewBox="0 0 960 540" width="960" height="540" xmlns="http://www.w3.org/2000/svg" xmlns:xlink="http://www.w3.org/1999/xlink" version="1.1"><rect x="0" y="0" width="960" height="540" fill="#1c242c"></rect><path d="M609 540L601.8 531.8C594.7 523.7 580.3 507.3 560.7 491C541 474.7 516 458.3 516.2 442C516.3 425.7 541.7 409.3 549.2 393C556.7 376.7 546.3 360.3 539.2 344C532 327.7 528 311.3 540.2 294.8C552.3 278.3 580.7 261.7 588.2 245.2C595.7 228.7 582.3 212.3 571 196C559.7 179.7 550.3 163.3 558.7 147C567 130.7 593 114.3 591.8 98C590.7 81.7 562.3 65.3 567.7 49C573 32.7 612 16.3 631.5 8.2L651 0L960 0L960 8.2C960 16.3 960 32.7 960 49C960 65.3 960 81.7 960 98C960 114.3 960 130.7 960 147C960 163.3 960 179.7 960 196C960 212.3 960 228.7 960 245.2C960 261.7 960 278.3 960 294.8C960 311.3 960 327.7 960 344C960 360.3 960 376.7 960 393C960 409.3 960 425.7 960 442C960 458.3 960 474.7 960 491C960 507.3 960 523.7 960 531.8L960 540Z" fill="#ffffff"></path><path d="M630 540L633.5 531.8C637 523.7 644 507.3 646.8 491C649.7 474.7 648.3 458.3 645.2 442C642 425.7 637 409.3 636.7 393C636.3 376.7 640.7 360.3 647.5 344C654.3 327.7 663.7 311.3 654 294.8C644.3 278.3 615.7 261.7 601.7 245.2C587.7 228.7 588.3 212.3 589.8 196C591.3 179.7 593.7 163.3 592.7 147C591.7 130.7 587.3 114.3 597.8 98C608.3 81.7 633.7 65.3 640 49C646.3 32.7 633.7 16.3 627.3 8.2L621 0L960 0L960 8.2C960 16.3 960 32.7 960 49C960 65.3 960 81.7 960 98C960 114.3 960 130.7 960 147C960 163.3 960 179.7 960 196C960 212.3 960 228.7 960 245.2C960 261.7 960 278.3 960 294.8C960 311.3 960 327.7 960 344C960 360.3 960 376.7 960 393C960 409.3 960 425.7 960 442C960 458.3 960 474.7 960 491C960 507.3 960 523.7 960 531.8L960 540Z" fill="#dbf8e8"></path><path d="M684 540L698.8 531.8C713.7 523.7 743.3 507.3 756.5 491C769.7 474.7 766.3 458.3 768.5 442C770.7 425.7 778.3 409.3 767.2 393C756 376.7 726 360.3 714.3 344C702.7 327.7 709.3 311.3 717.2 294.8C725 278.3 734 261.7 734.3 245.2C734.7 228.7 726.3 212.3 712.8 196C699.3 179.7 680.7 163.3 670.5 147C660.3 130.7 658.7 114.3 666.7 98C674.7 81.7 692.3 65.3 697.2 49C702 32.7 694 16.3 690 8.2L686 0L960 0L960 8.2C960 16.3 960 32.7 960 49C960 65.3 960 81.7 960 98C960 114.3 960 130.7 960 147C960 163.3 960 179.7 960 196C960 212.3 960 228.7 960 245.2C960 261.7 960 278.3 960 294.8C960 311.3 960 327.7 960 344C960 360.3 960 376.7 960 393C960 409.3 960 425.7 960 442C960 458.3 960 474.7 960 491C960 507.3 960 523.7 960 531.8L960 540Z" fill="#b5f0d2"></path><path d="M792 540L800 531.8C808 523.7 824 507.3 827.2 491C830.3 474.7 820.7 458.3 814.2 442C807.7 425.7 804.3 409.3 803.8 393C803.3 376.7 805.7 360.3 803.5 344C801.3 327.7 794.7 311.3 789.5 294.8C784.3 278.3 780.7 261.7 785.3 245.2C790 228.7 803 212.3 813.8 196C824.7 179.7 833.3 163.3 835.7 147C838 130.7 834 114.3 835.2 98C836.3 81.7 842.7 65.3 839.7 49C836.7 32.7 824.3 16.3 818.2 8.2L812 0L960 0L960 8.2C960 16.3 960 32.7 960 49C960 65.3 960 81.7 960 98C960 114.3 960 130.7 960 147C960 163.3 960 179.7 960 196C960 212.3 960 228.7 960 245.2C960 261.7 960 278.3 960 294.8C960 311.3 960 327.7 960 344C960 360.3 960 376.7 960 393C960 409.3 960 425.7 960 442C960 458.3 960 474.7 960 491C960 507.3 960 523.7 960 531.8L960 540Z" fill="#8de7bc"></path><path d="M854 540L856 531.8C858 523.7 862 507.3 868.8 491C875.7 474.7 885.3 458.3 886.3 442C887.3 425.7 879.7 409.3 875.7 393C871.7 376.7 871.3 360.3 868.7 344C866 327.7 861 311.3 865.8 294.8C870.7 278.3 885.3 261.7 894.2 245.2C903 228.7 906 212.3 905.2 196C904.3 179.7 899.7 163.3 893.5 147C887.3 130.7 879.7 114.3 868.8 98C858 81.7 844 65.3 840.2 49C836.3 32.7 842.7 16.3 845.8 8.2L849 0L960 0L960 8.2C960 16.3 960 32.7 960 49C960 65.3 960 81.7 960 98C960 114.3 960 130.7 960 147C960 163.3 960 179.7 960 196C960 212.3 960 228.7 960 245.2C960 261.7 960 278.3 960 294.8C960 311.3 960 327.7 960 344C960 360.3 960 376.7 960 393C960 409.3 960 425.7 960 442C960 458.3 960 474.7 960 491C960 507.3 960 523.7 960 531.8L960 540Z" fill="#5cdea7"></path></svg>